# xmcd CD database file
#
# Track frame offsets:
#	150
#	14810
#	25105
#	32227
#	40115
#	49875
#	53602
#	61632
#	68800
#	85627
#	91722
#	104660
#	118590
#	126995
#	136027
#	155850
#	168430
#	181890
#	191632
#
# Disc length: 2661 seconds
#
# Revision: 0
# Processed by: cddbd v1.5.1PL0 Copyright (c) Steve Scherf et al.
# Submitted via: CDex 1.51
#
DISCID=fc0a6313
DTITLE=Phil Minton and Veryan Weston - Ways Past
DYEAR=1992
DGENRE=Jazz
TTITLE0=On reading 'An Anthology of 1000 Poets'
TTITLE1=Fine Weather
TTITLE2=Midnight
TTITLE3=Adman
TTITLE4=Lion
TTITLE5=Italienisches Liederbuch XLIII
TTITLE6=Flea
TTITLE7=Elephant
TTITLE8=Cormorant
TTITLE9=Italienisches Liederbuch XXIII
TTITLE10=Past
TTITLE11=Mandelay Song
TTITLE12=Somewhere Over the Rainbow
TTITLE13=First Line, Last Page
TTITLE14=Yesterday Once More
TTITLE15=And Who's Next?
TTITLE16=The Cutty Wren
TTITLE17=The Singer
TTITLE18=Rain or Hail
EXTD=YEAR: 1992
EXTT0=
EXTT1=
EXTT2=
EXTT3=
EXTT4=
EXTT5=
EXTT6=
EXTT7=
EXTT8=
EXTT9=
EXTT10=
EXTT11=
EXTT12=
EXTT13=
EXTT14=
EXTT15=
EXTT16=
EXTT17=
EXTT18=
PLAYORDER=
